# xmcd
#
# Track frame offsets:
#	150
#	14486
#	28500
#	42257
#	56777
#	69350
#	84656
#	97140
#	109969
#	123279
#	136373
#	150596
#	163904
#	179617
#	192698
#	208487
#	223205
#
# Disc length: 3169 seconds
# Revision: 2
# Processed by: cddbd v1.5.2PL0 Copyright (c) Steve Scherf et al.
# Submitted via: dBpowerAMP V12.0
#
DISCID=0b0c5f11
DTITLE=Various Artist - American Epic: The Collection
DYEAR=1927
DGENRE=Blues
TTITLE0=Elder J.E. Burch - My Heart Keeps Singing
TTITLE1=Julius Daniels - Ninety-Nine Year Blues
TTITLE2=Earl Johnson and His Clodhoppers - I Get My Whiskey From Rockingham
TTITLE3=Reverend J.M. Gates, The - Death's Black Train Is Coming
TTITLE4=Jimmie Rodgers - Waiting for a Train
TTITLE5=Tenneva Ramblers - Darling, Where Have You Been So Long?
TTITLE6=Alabama Sacred Harp Singers - Rocky Road
TTITLE7=Amédé, Cléoma and Ophy Breaux - Ma Blond Est Partie
TTITLE8=Carolina Tar Heels - Peg and Awl
TTITLE9=Barbecue Bob - Chocolate to the Bone
TTITLE10=Eddie Head and Family - Down On Me
TTITLE11=Joe Falcon With Cléoma and Ophy Breaux - Prenez Courage
TTITLE12=Dilly and His Dill Pickles - Pickin' Off Peanuts
TTITLE13=Nelstone's Hawaiians - Just Because
TTITLE14=Willie Walker - Dupree Blues
TTITLE15=Burnett and Rutherford - Ladies on the Steamboat
TTITLE16=Blind Willie McTell - Mamma, 'Tain't Long Fo' Day
EXTD=
EXTT0=
EXTT1=
EXTT2=
EXTT3=
EXTT4=
EXTT5=
EXTT6=
EXTT7=
EXTT8=
EXTT9=
EXTT10=
EXTT11=
EXTT12=
EXTT13=
EXTT14=
EXTT15=
EXTT16=
PLAYORDER=
